<?xml version="1.0" standalone="no"?><!DOCTYPE svg PUBLIC "-//W3C//DTD SVG 1.1//EN" "http://www.w3.org/Graphics/SVG/1.1/DTD/svg11.dtd"><svg t="1750236251266" class="icon" viewBox="0 0 1024 1024" version="1.1" xmlns="http://www.w3.org/2000/svg" p-id="6009" xmlns:xlink="http://www.w3.org/1999/xlink" width="200" height="200"><path d="M768 256a42.666667 42.666667 0 0 1 42.666667 42.666667v426.666666a42.666667 42.666667 0 1 1-85.333334 0V298.666667a42.666667 42.666667 0 0 1 42.666667-42.666667zM256 256a42.666667 42.666667 0 0 1 42.666667 42.666667v426.666666a42.666667 42.666667 0 1 1-85.333334 0V298.666667a42.666667 42.666667 0 0 1 42.666667-42.666667z" fill="#333333" p-id="6010"></path><path d="M256 682.666667a42.666667 42.666667 0 0 1 42.666667 42.666666c0 10.496 9.6 31.445333 51.413333 52.352 39.253333 19.626667 96.426667 32.981333 161.92 32.981334 65.493333 0 122.709333-13.354667 161.92-32.981334 41.813333-20.906667 51.413333-41.856 51.413333-52.352a42.666667 42.666667 0 1 1 85.333334 0c0 60.202667-47.701333 103.253333-98.56 128.682667-53.418667 26.709333-124.245333 41.984-200.106667 41.984-75.861333 0-146.688-15.274667-200.106667-41.984C261.034667 828.586667 213.333333 785.493333 213.333333 725.333333a42.666667 42.666667 0 0 1 42.666667-42.666666z" fill="#333333" p-id="6011"></path><path d="M256 469.333333a42.666667 42.666667 0 0 1 42.666667 42.666667c0 10.496 9.6 31.445333 51.413333 52.352 39.253333 19.626667 96.426667 32.981333 161.92 32.981333 65.493333 0 122.709333-13.354667 161.92-32.981333 41.813333-20.906667 51.413333-41.856 51.413333-52.352a42.666667 42.666667 0 1 1 85.333334 0c0 60.202667-47.701333 103.253333-98.56 128.682667-53.418667 26.709333-124.245333 41.984-200.106667 41.984-75.861333 0-146.688-15.274667-200.106667-41.984C261.034667 615.253333 213.333333 572.16 213.333333 512a42.666667 42.666667 0 0 1 42.666667-42.666667z" fill="#333333" p-id="6012"></path><path d="M350.08 246.314667C308.266667 267.221333 298.666667 288.170667 298.666667 298.666667c0 10.496 9.6 31.445333 51.413333 52.352 39.253333 19.626667 96.426667 32.981333 161.92 32.981333 65.493333 0 122.709333-13.354667 161.92-32.981333C715.733333 330.112 725.333333 309.162667 725.333333 298.666667c0-10.496-9.6-31.445333-51.413333-52.352C634.666667 226.688 577.493333 213.333333 512 213.333333c-65.493333 0-122.709333 13.354667-161.92 32.981334zM311.893333 169.984C365.312 143.274667 436.138667 128 512 128c75.861333 0 146.688 15.274667 200.106667 41.984C762.965333 195.413333 810.666667 238.506667 810.666667 298.666667s-47.701333 103.253333-98.56 128.682666c-53.418667 26.709333-124.245333 41.984-200.106667 41.984-75.861333 0-146.688-15.274667-200.106667-41.984C261.034667 401.92 213.333333 358.826667 213.333333 298.666667s47.701333-103.253333 98.56-128.682667z" fill="#333333" p-id="6013"></path></svg>