<?xml version="1.0" standalone="no"?><!DOCTYPE svg PUBLIC "-//W3C//DTD SVG 1.1//EN" "http://www.w3.org/Graphics/SVG/1.1/DTD/svg11.dtd"><svg t="1750209990908" class="icon" viewBox="0 0 1024 1024" version="1.1" xmlns="http://www.w3.org/2000/svg" p-id="1468" xmlns:xlink="http://www.w3.org/1999/xlink" width="200" height="200"><path d="M290 920c-64 0-118.7-16.7-162.7-49.6-36.5-27.3-65.1-65.4-85-113.3C9.1 677.6 8.3 590.9 8 553.9v-2.4l96-0.9v2.5c0.3 31.4 0.9 105 26.8 167.3C160.3 791 210.9 824 290 824c26.8 0 62.2-9.7 98.2-85 30-62.8 50.9-152.3 71.2-238.9 22.2-94.7 45.1-192.6 81.8-268.1 21.6-44.4 46.1-77.5 75-101.5C651 101.6 691.7 87 737 87c74.4 0 175 37.4 232.4 215.8 37.9 117.7 43.6 253 43.6 323.2h-96c0-52-3.8-184.6-38.9-293.8-15.7-48.8-35.5-86.3-58.8-111.5-23.5-25.4-50.4-37.7-82.3-37.7-30.4 0-70.2 10.3-109.5 91-32 65.8-53.7 158.4-74.6 248-21.4 91.5-43.5 186.1-78 258.4-20.3 42.5-43.3 74.4-70.4 97.4-33.1 28-71.6 42.2-114.5 42.2z" fill="#5D87DA" p-id="1469"></path></svg>